<?xml version="1.0" standalone="no"?>
<!DOCTYPE svg PUBLIC "-//W3C//DTD SVG 20010904//EN"
 "http://www.w3.org/TR/2001/REC-SVG-20010904/DTD/svg10.dtd">
<svg version="1.0" xmlns="http://www.w3.org/2000/svg"
 width="1024.000000pt" height="1024.000000pt" viewBox="0 0 1024.000000 1024.000000"
 preserveAspectRatio="xMidYMid meet">

<g transform="translate(0.000000,1024.000000) scale(0.100000,-0.100000)"
fill="#000000" stroke="none">
<path d="M0 5120 l0 -5120 5120 0 5120 0 0 5120 0 5120 -5120 0 -5120 0 0
-5120z m5550 4115 c137 -21 235 -49 363 -104 122 -53 534 -250 797 -381 172
-86 527 -261 1205 -594 449 -221 424 -208 748 -376 272 -141 410 -238 516
-361 108 -125 147 -220 157 -389 8 -122 -19 -253 -72 -349 -20 -36 -95 -145
-168 -241 -72 -97 -146 -196 -163 -221 -18 -24 -52 -67 -75 -96 -24 -28 -53
-66 -66 -85 -13 -18 -66 -91 -118 -163 -52 -71 -126 -175 -164 -230 -38 -55
-73 -104 -77 -110 -25 -31 -82 -105 -172 -227 -100 -135 -135 -175 -90 -100
45 72 277 387 324 439 26 28 190 257 268 373 38 58 89 128 111 155 119 143
326 442 367 528 83 179 73 390 -28 580 -34 63 -192 225 -285 291 -63 44 -501
276 -703 371 -49 24 -400 197 -780 385 -379 188 -710 351 -735 362 -24 11
-141 68 -260 127 -118 59 -258 126 -310 151 -52 24 -135 62 -185 85 -202 94
-373 138 -535 138 -199 1 -356 -38 -545 -134 -135 -69 -213 -139 -388 -349
-66 -80 -148 -176 -182 -215 -34 -38 -101 -119 -150 -180 -49 -60 -134 -162
-190 -225 -56 -63 -146 -171 -202 -240 -55 -69 -150 -181 -212 -250 -98 -110
-274 -318 -426 -504 -41 -50 -44 -57 -20 -39 41 29 111 105 165 178 60 83 212
263 306 365 80 86 167 191 240 290 23 30 96 116 164 190 68 74 157 180 198
235 72 95 113 144 277 331 39 44 95 111 125 148 109 133 261 241 431 305 194
73 370 95 524 67 214 -40 344 -91 780 -306 154 -76 375 -183 490 -238 259
-123 673 -331 661 -332 -5 0 -27 9 -50 19 -35 16 -59 27 -86 36 -3 1 -31 14
-63 28 -32 15 -62 27 -67 27 -6 0 -10 4 -10 9 0 5 -17 15 -37 22 -21 6 -42 18
-46 25 -4 8 -21 14 -36 14 -16 0 -31 7 -35 15 -3 8 -11 15 -18 15 -9 0 -8 -3
2 -10 8 -5 11 -10 6 -10 -5 0 -17 6 -25 13 -9 7 -36 19 -61 26 -65 19 -89 32
-95 52 -6 17 -39 33 -64 29 -7 -1 -10 3 -7 8 3 5 -10 16 -28 25 -26 12 -36 13
-46 4 -10 -9 -12 -8 -7 5 4 12 1 16 -14 15 -10 -1 -19 -5 -19 -9 0 -4 -5 -8
-11 -8 -6 0 -9 6 -6 14 3 8 -3 22 -13 31 -13 12 -19 13 -22 4 -3 -10 -11 -10
-36 0 -18 7 -32 17 -32 21 0 4 -14 10 -31 14 -20 4 -29 11 -26 19 3 9 -15 24
-51 42 -59 30 -112 42 -112 25 0 -6 -9 -10 -20 -10 -13 0 -20 -7 -20 -20 0
-11 -4 -20 -10 -20 -5 0 -10 -4 -10 -10 0 -5 14 -10 30 -10 17 0 30 -4 30 -10
0 -5 -9 -10 -20 -10 -11 0 -20 -4 -20 -10 0 -5 -9 -10 -20 -10 -13 0 -20 -7
-20 -20 0 -13 -7 -20 -20 -20 -11 0 -20 7 -20 15 0 8 -9 15 -20 15 -11 0 -20
5 -20 10 0 6 -7 10 -15 10 -8 0 -15 -7 -15 -15 0 -8 -17 -19 -40 -26 -23 -7
-42 -20 -45 -31 -7 -21 -31 -24 -38 -5 -3 6 -6 -2 -6 -20 -1 -25 8 -41 40 -73
45 -44 42 -52 -7 -18 -74 51 -84 124 -29 203 19 28 45 63 57 78 17 21 20 32
12 45 -24 41 -334 169 -494 204 -77 17 -302 16 -369 -1 -80 -20 -217 -78 -296
-124 -108 -63 -218 -175 -441 -452 -48 -60 -149 -180 -224 -265 -74 -85 -166
-195 -205 -245 -38 -49 -110 -135 -159 -190 -49 -55 -125 -147 -170 -205 -44
-58 -104 -128 -132 -157 l-52 -52 57 28 c61 32 98 68 181 176 30 39 99 122
155 185 55 63 147 174 205 245 57 72 152 184 210 250 58 66 176 206 262 310
169 207 210 249 307 314 236 161 487 197 767 111 97 -30 258 -99 250 -107 -2
-3 -17 2 -33 11 -16 8 -41 13 -56 12 -15 -2 -27 1 -27 5 0 5 -11 9 -25 9 -16
0 -25 -6 -25 -15 0 -8 -7 -15 -15 -15 -8 0 -15 -7 -15 -15 0 -8 -13 -21 -30
-30 -33 -17 -100 -20 -100 -5 0 19 -32 10 -37 -10 -3 -11 -14 -20 -24 -20 -13
0 -19 -7 -19 -21 0 -14 -5 -19 -14 -16 -19 8 -66 -14 -66 -30 0 -8 -15 -13
-40 -13 -27 0 -40 -4 -40 -14 0 -18 -48 -27 -76 -14 -33 15 -52 4 -47 -25 5
-23 2 -24 -58 -30 -34 -4 -78 -8 -98 -8 -20 -1 -28 -3 -18 -6 30 -8 18 -21
-25 -28 -24 -4 -64 -20 -89 -36 -25 -16 -51 -29 -57 -29 -7 0 -12 -11 -12 -25
0 -18 -5 -25 -19 -25 -11 0 -21 6 -24 13 -2 6 -8 -1 -12 -16 -5 -20 -15 -30
-36 -34 -20 -4 -29 -12 -29 -24 0 -12 -7 -19 -19 -19 -10 0 -21 -9 -24 -20 -3
-12 -14 -20 -26 -20 -12 0 -37 -16 -57 -35 -19 -19 -41 -35 -49 -35 -7 0 -16
-8 -20 -18 -4 -13 -23 -23 -61 -31 -52 -12 -55 -15 -50 -37 4 -14 2 -24 -4
-24 -5 0 -10 -9 -10 -20 0 -13 -7 -20 -20 -20 -11 0 -20 -7 -20 -15 0 -9 -9
-15 -25 -15 -16 0 -23 -4 -19 -13 3 -8 -2 -20 -10 -27 -9 -7 -13 -16 -10 -21
3 -5 -5 -9 -17 -9 -18 0 -21 -4 -16 -29 7 -31 -16 -61 -46 -61 -13 0 -17 -9
-17 -36 0 -51 -15 -74 -50 -74 -23 0 -30 -4 -30 -20 0 -11 6 -20 14 -20 17 0
31 -74 24 -115 -3 -14 -2 -25 1 -25 3 0 16 -3 29 -6 17 -5 22 -2 22 12 0 15 2
16 9 5 5 -7 17 -11 27 -7 11 3 84 19 164 35 231 47 398 62 718 61 l283 0 64
55 c85 71 117 87 185 88 69 2 104 -18 126 -71 33 -79 50 -106 75 -125 39 -28
104 -38 173 -26 53 9 62 8 85 -9 14 -10 34 -33 45 -51 18 -31 18 -33 -3 -87
-52 -137 -1 -225 161 -276 73 -23 169 -19 240 9 38 15 39 17 19 25 -15 5 -21
14 -17 23 3 8 2 15 -2 15 -4 0 -24 15 -44 34 -21 19 -47 37 -58 41 -11 4 -18
11 -15 16 4 5 2 9 -3 9 -5 0 -25 6 -43 14 -19 8 -38 16 -44 18 -14 4 -84 72
-79 77 5 5 79 -34 139 -74 67 -44 250 -108 290 -101 42 8 67 -16 103 -96 22
-48 40 -74 64 -88 34 -22 48 -22 175 -4 35 5 51 1 88 -21 46 -26 85 -75 85
-106 0 -37 -199 -296 -258 -335 -21 -14 -26 -14 -60 4 -283 145 -543 278 -651
333 -73 38 -138 73 -145 78 -14 11 -490 240 -783 376 -46 21 -83 44 -83 51 0
7 18 35 40 63 22 28 39 51 38 52 -2 0 -14 4 -28 7 -47 13 -561 8 -640 -6 -313
-56 -406 -78 -595 -142 -255 -87 -258 -88 -333 -133 -35 -20 -65 -37 -68 -37
-3 0 -35 -14 -72 -32 -95 -45 -193 -109 -185 -121 3 -6 1 -7 -4 -4 -10 6 -46
-17 -81 -50 -7 -6 -30 -22 -52 -34 -21 -12 -37 -26 -34 -31 3 -4 -3 -8 -13 -8
-20 0 -153 -135 -153 -156 0 -8 -6 -14 -12 -14 -15 -1 -130 -117 -179 -180
-19 -26 -34 -56 -33 -70 3 -59 3 -60 34 -60 17 0 30 5 30 10 0 6 23 10 50 10
43 0 50 3 50 20 0 17 7 20 40 20 33 0 40 3 40 20 0 15 7 20 28 20 16 0 34 8
42 20 8 11 25 20 39 20 25 0 71 42 71 66 0 7 8 14 18 14 10 0 42 20 70 44 29
25 62 48 75 52 12 3 33 19 47 33 14 15 40 33 58 40 17 8 32 17 32 22 0 5 11 9
24 9 14 0 28 5 31 11 8 11 47 28 84 35 14 3 30 13 37 22 8 9 14 13 14 8 0 -6
12 2 28 16 15 14 48 31 75 39 26 7 47 17 47 21 0 4 9 8 20 8 11 0 20 5 20 10
0 6 9 10 21 10 31 0 123 31 134 46 6 7 28 16 48 19 21 4 44 14 52 21 8 9 35
14 71 14 60 0 129 16 154 35 13 11 40 18 115 29 86 13 113 18 135 26 14 5 48
11 75 14 28 3 79 10 115 15 36 6 90 11 120 11 31 0 64 6 75 13 11 8 36 17 55
20 25 5 31 4 20 -3 -12 -8 -11 -10 8 -10 12 0 22 6 22 13 0 6 5 4 11 -6 10
-17 189 -111 306 -161 87 -36 352 -169 683 -340 157 -82 373 -193 481 -247
108 -54 199 -105 203 -115 9 -23 -2 -39 -218 -299 -106 -126 -207 -250 -226
-275 -83 -110 -231 -292 -300 -370 -42 -47 -102 -119 -135 -160 -32 -41 -136
-167 -230 -280 -94 -113 -215 -261 -270 -330 -89 -112 -241 -296 -285 -343
-16 -17 -19 -16 -89 12 -40 16 -80 36 -89 44 -23 20 -229 118 -260 123 -14 3
-48 18 -76 35 -45 26 -307 157 -653 326 -62 30 -129 68 -149 84 -20 15 -53 31
-73 34 -20 4 -95 36 -167 72 l-131 66 -36 -39 c-20 -21 -37 -44 -37 -49 0 -12
114 -77 250 -141 112 -54 122 -59 400 -198 118 -60 262 -133 320 -163 58 -30
175 -88 260 -129 278 -134 383 -189 393 -205 8 -12 5 -23 -9 -41 -10 -14 -60
-79 -111 -145 -95 -125 -128 -153 -201 -172 -79 -22 -182 31 -182 92 0 35 -45
85 -87 96 -40 11 -88 5 -118 -16 -11 -7 -32 -13 -48 -13 -33 0 -146 57 -154
77 -3 8 9 32 27 55 80 99 78 219 -6 301 -33 33 -79 59 -88 50 -3 -4 -6 -1 -6
6 0 7 -4 10 -9 6 -5 -3 -12 -1 -16 5 -9 15 -102 12 -156 -4 -82 -25 -128 -55
-165 -106 -24 -34 -43 -50 -57 -50 -55 0 -138 85 -143 146 -3 45 -19 64 -54
64 -14 0 -30 3 -34 7 -4 4 -45 7 -91 8 -67 0 -87 4 -104 19 -12 11 -24 16 -28
12 -13 -13 17 -119 47 -166 16 -26 30 -52 30 -58 0 -7 6 -12 13 -13 8 0 8 -2
1 -5 -8 -4 -8 -15 1 -41 8 -22 10 -47 5 -64 -5 -15 -7 -29 -7 -31 1 -2 -18 17
-42 42 -54 55 -36 28 38 -59 246 -286 723 -551 1186 -657 235 -55 315 -64 539
-64 310 0 585 37 843 115 231 69 325 109 517 222 363 215 632 499 817 864 44
88 117 316 129 402 14 111 12 295 -5 408 -21 144 -92 371 -152 492 -13 27 -22
51 -20 54 5 4 32 -43 97 -170 29 -56 36 -63 38 -42 3 24 22 37 22 15 0 -5 4
-10 9 -10 4 0 11 35 15 78 8 104 -9 165 -95 322 -26 48 -42 73 -96 157 -19 29
-40 70 -47 90 -8 21 -18 37 -24 36 -5 -1 23 51 62 117 39 66 74 119 78 120 4
0 56 -48 116 -107 132 -130 234 -267 292 -388 23 -49 55 -117 71 -150 66 -136
163 -465 186 -630 15 -106 14 -154 -11 -360 -23 -182 -32 -235 -50 -277 -9
-21 -16 -47 -16 -59 0 -30 -52 -182 -106 -307 -84 -199 -347 -549 -526 -703
-425 -364 -851 -572 -1413 -688 -273 -57 -369 -66 -690 -66 -385 1 -579 28
-953 136 -207 60 -615 249 -780 362 -45 30 -51 47 -10 27 22 -11 22 -10 -2 10
-76 64 -109 89 -164 124 -51 33 -57 35 -37 12 38 -40 14 -31 -48 20 -182 148
-407 414 -525 620 -119 209 -234 593 -236 789 0 28 -3 36 -10 25 -5 -9 -7 15
-3 64 4 55 3 77 -5 73 -6 -5 -13 8 -17 33 -5 30 -11 40 -26 40 -12 0 -19 7
-19 19 0 14 -9 20 -33 23 -30 3 -34 1 -30 -17 2 -11 1 -14 -3 -7 -7 14 -24 16
-24 2 0 -5 -12 -22 -28 -38 -15 -15 -43 -48 -62 -72 -19 -24 -42 -51 -50 -60
-39 -40 -172 -203 -225 -275 -32 -44 -89 -114 -125 -155 -37 -41 -98 -118
-137 -170 -39 -52 -105 -135 -148 -185 -43 -49 -88 -103 -102 -120 -20 -24
-22 -25 -13 -6 7 13 45 60 84 105 40 45 110 131 156 191 46 61 107 137 136
170 28 33 100 123 160 201 137 177 295 375 382 479 37 44 84 102 106 129 29
37 40 45 47 35 7 -11 9 -10 9 4 0 10 7 41 16 68 9 27 15 51 13 53 -7 6 -161
-167 -244 -274 -44 -56 -125 -155 -180 -219 -55 -64 -136 -163 -180 -222 -44
-58 -116 -150 -159 -205 -44 -54 -81 -101 -83 -104 -2 -2 -9 2 -14 10 -9 13
-10 12 -5 -2 3 -9 -4 -27 -15 -40 -11 -13 -17 -17 -13 -9 5 10 3 12 -5 7 -7
-5 -10 -14 -7 -22 4 -10 0 -14 -12 -12 -12 2 -17 -4 -17 -18 -1 -23 -57 -102
-127 -176 -24 -27 -42 -48 -39 -48 11 0 -44 -45 -57 -47 -22 -3 -40 -24 -26
-30 9 -3 8 -12 -3 -34 -8 -16 -19 -26 -25 -23 -6 4 -8 2 -4 -4 6 -10 -6 -36
-52 -112 -19 -29 -22 -32 -22 -13 0 30 -34 39 -66 18 l-25 -16 16 31 c9 18 14
34 11 38 -4 3 -14 -13 -23 -36 -9 -23 -20 -42 -25 -42 -5 0 -6 -4 -3 -10 3 -5
2 -10 -4 -10 -6 0 -13 -16 -17 -35 -3 -19 -10 -38 -15 -41 -5 -3 -9 -44 -10
-92 0 -48 -4 -105 -8 -127 l-7 -40 -8 54 c-16 121 32 299 117 428 57 86 203
275 358 466 135 165 174 214 271 338 46 58 117 146 158 196 41 49 114 139 163
199 48 60 139 170 203 244 63 74 154 181 201 238 47 57 88 101 90 98 5 -4 53
78 53 90 0 3 -12 -9 -27 -28 -28 -34 -144 -169 -153 -178 -34 -34 -184 -208
-286 -331 -71 -86 -167 -203 -214 -260 -47 -56 -130 -160 -185 -229 -111 -140
-191 -241 -338 -423 -241 -299 -322 -411 -373 -522 -126 -273 -66 -545 171
-780 89 -87 179 -149 354 -238 75 -38 161 -84 191 -102 30 -18 129 -72 220
-120 91 -48 224 -120 295 -160 327 -182 532 -293 1000 -543 77 -41 181 -98
230 -127 50 -29 178 -101 285 -160 107 -59 285 -157 395 -218 326 -180 536
-273 660 -292 28 -4 118 -13 200 -20 143 -12 146 -12 60 -14 -292 -3 -456 40
-772 204 -93 48 -208 111 -258 140 -175 102 -321 183 -435 242 -63 33 -124 65
-135 71 -11 6 -90 48 -175 93 -85 45 -232 124 -326 175 -94 52 -174 94 -177
94 -4 0 -48 24 -99 53 -105 61 -435 245 -578 323 -52 29 -135 74 -185 102 -49
27 -205 109 -345 182 -140 73 -283 152 -319 176 -35 23 -117 95 -182 160 -129
127 -139 145 -181 309 -36 139 -11 348 58 489 14 28 64 106 112 173 79 111
148 199 379 485 255 316 303 380 308 406 1 9 8 16 13 15 6 -2 9 4 5 13 -3 9 0
14 8 12 8 -2 13 3 11 10 -1 8 2 11 7 8 13 -8 41 33 35 49 -3 7 -1 16 5 20 6 3
11 1 11 -6 0 -15 30 9 30 25 0 6 10 22 21 36 11 14 18 19 14 13 -9 -19 -1 -16
19 6 13 14 14 21 5 27 -8 4 -10 3 -5 -4 4 -7 2 -12 -3 -12 -16 0 -13 20 3 26
8 3 17 16 20 30 4 13 12 24 19 24 7 0 22 17 33 37 61 116 66 128 62 164 -2 21
0 35 4 33 11 -7 78 65 78 82 0 7 8 18 18 23 16 10 15 10 -3 11 -19 1 -19 2 2
10 15 6 23 21 28 49 4 24 12 41 20 41 19 0 65 58 65 81 0 11 7 19 16 19 10 0
14 6 10 15 -3 9 0 15 9 15 8 0 17 11 21 25 3 14 9 25 13 25 4 0 15 16 24 35 9
20 24 38 32 41 8 4 15 14 15 23 0 14 2 14 11 1 8 -12 9 -8 5 15 -3 17 -3 24 0
18 9 -22 34 -14 35 10 0 12 3 16 6 10 6 -17 33 9 33 31 0 9 6 16 13 16 8 0 7
4 -3 10 -10 6 -11 10 -2 10 6 0 12 8 12 18 0 10 9 24 20 32 11 8 20 22 20 32
0 10 9 18 22 20 14 2 23 10 22 19 -1 11 5 15 16 12 10 -3 21 0 24 6 4 6 2 11
-3 11 -6 0 -11 5 -11 11 0 6 7 9 15 5 11 -4 15 2 15 20 0 14 4 23 10 19 6 -3
18 7 28 24 9 17 24 31 33 31 9 0 22 7 29 15 7 9 19 14 27 11 10 -4 11 -1 3 14
-13 24 -13 43 1 35 12 -8 65 45 71 71 2 11 9 18 15 17 7 -2 15 6 18 17 4 11
15 25 26 30 10 6 19 20 19 30 0 11 5 20 10 20 6 0 10 -5 10 -11 0 -5 5 -7 10
-4 6 3 10 16 10 29 0 28 18 46 45 46 11 0 34 14 52 30 18 17 36 30 42 30 5 0
22 20 37 44 16 25 36 47 46 49 12 3 16 11 12 21 -3 9 -2 16 4 16 6 0 12 -6 15
-12 3 -8 9 -3 16 12 7 14 25 33 42 42 16 9 29 24 29 33 0 9 4 14 8 11 5 -3 15
6 22 19 7 14 26 30 42 37 15 7 28 19 28 25 0 7 9 13 20 13 27 0 25 -10 -7 -37
-14 -13 -24 -26 -21 -29 3 -3 38 31 77 75 73 83 94 117 42 67 -16 -15 -31 -23
-35 -18 -6 9 57 86 103 126 113 97 168 151 195 189 17 25 70 89 117 144 191
218 297 341 335 389 22 28 72 89 111 135 39 46 108 129 153 184 204 247 314
324 590 415 181 59 317 72 490 45z m1115 -685 c25 -11 -1 -11 -35 0 -20 6 -21
8 -5 8 11 0 29 -3 40 -8z m-157 -50 c-7 -10 -14 -17 -17 -15 -4 4 18 35 25 35
2 0 -1 -9 -8 -20z m167 -80 c-3 -5 -12 -10 -18 -10 -7 0 -6 4 3 10 19 12 23
12 15 0z m-50 -21 c-26 -10 -95 -11 -95 -1 0 4 26 7 57 8 36 0 50 -2 38 -7z
m229 -138 c-3 -3 -15 6 -27 18 l-22 24 27 -19 c14 -10 24 -21 22 -23z m806
-66 c0 -3 -27 8 -60 25 -33 17 -60 33 -60 35 0 3 27 -8 60 -25 33 -17 60 -33
60 -35z m155 -75 c3 -6 -1 -7 -9 -4 -18 7 -21 14 -7 14 6 0 13 -4 16 -10z
m640 -320 c3 -6 -1 -7 -9 -4 -18 7 -21 14 -7 14 6 0 13 -4 16 -10z m-4230
-120 c3 -5 1 -10 -4 -10 -6 0 -11 5 -11 10 0 6 2 10 4 10 3 0 8 -4 11 -10z
m-765 -88 c0 -5 -9 -17 -20 -27 -20 -18 -25 -11 -14 19 6 17 34 23 34 8z
m4781 -428 c122 -36 217 -113 262 -212 30 -66 30 -174 0 -222 -29 -45 -68 -90
-79 -90 -5 0 -25 -14 -44 -31 -19 -17 -60 -43 -90 -57 -48 -24 -67 -27 -150
-27 -90 0 -98 2 -165 38 -38 20 -73 37 -77 37 -5 0 -27 12 -49 26 -80 50 -127
206 -95 316 27 95 134 196 236 224 65 18 187 17 251 -2z m-5506 -264 c-3 -5
-11 -10 -16 -10 -6 0 -7 5 -4 10 3 6 11 10 16 10 6 0 7 -4 4 -10z m6315 -239
c-5 -11 -15 -23 -21 -27 -6 -3 -3 5 6 20 20 30 30 35 15 7z m-226 -318 c-34
-46 -50 -64 -39 -43 13 24 55 80 61 80 3 0 -7 -17 -22 -37z m-171 -235 c-23
-38 -95 -138 -99 -138 -3 0 -2 6 2 13 13 22 98 137 102 137 2 0 0 -6 -5 -12z
m-1742 -45 c23 -61 50 -188 59 -283 24 -247 -52 -547 -190 -756 -60 -91 -178
-223 -272 -302 -209 -178 -399 -287 -645 -371 -130 -45 -377 -94 -444 -89
l-41 3 29 40 c39 54 71 125 79 174 5 34 4 41 -10 41 -37 0 -12 18 41 30 81 18
303 95 391 135 119 56 267 159 372 261 160 155 242 289 287 472 23 92 27 128
28 259 0 124 2 148 12 130 7 -12 12 -16 13 -10 0 7 12 19 28 27 15 8 37 25 49
38 88 94 184 188 192 188 5 0 7 9 4 20 -8 30 6 24 18 -7z m1618 -135 c-29 -42
-119 -160 -133 -173 -21 -21 30 53 87 128 60 78 87 104 46 45z m302 -44 c17
-15 14 -21 -59 -108 -42 -50 -93 -111 -113 -136 -20 -25 -59 -68 -87 -97 -35
-37 -58 -72 -77 -122 -15 -39 -28 -71 -30 -71 -2 0 -10 -3 -19 -6 -23 -9 -20
11 15 96 20 51 45 91 78 125 27 28 86 100 131 160 92 121 133 173 139 174 3 1
12 -6 22 -15z m-481 -194 c-12 -16 -24 -30 -26 -30 -3 0 4 14 16 30 12 17 24
30 26 30 3 0 -4 -13 -16 -30z m-1484 -615 c-59 -111 -165 -252 -258 -342 -84
-82 -222 -193 -288 -231 -25 -14 -52 -31 -60 -38 -33 -27 -231 -124 -324 -159
-124 -46 -317 -92 -461 -110 -121 -16 -357 -19 -420 -6 -30 7 -9 9 85 10 247
2 625 72 828 152 308 123 599 332 777 560 48 62 141 209 151 241 3 11 8 17 11
14 3 -3 -15 -44 -41 -91z m1534 -10 c-18 -25 -38 -49 -45 -51 -7 -3 -15 -18
-19 -35 -3 -17 -17 -36 -34 -46 -17 -11 -28 -25 -26 -36 1 -9 -1 -15 -5 -13
-19 12 -32 -16 -36 -75 -9 -141 -40 -277 -76 -343 -6 -10 -12 -32 -15 -48 -5
-45 -14 -69 -24 -63 -11 7 -21 -21 -14 -40 4 -8 1 -15 -5 -15 -6 0 -11 -7 -11
-16 0 -16 -69 -156 -82 -164 -4 -3 -9 -15 -11 -27 -1 -12 -9 -28 -16 -37 -7
-9 -10 -16 -5 -16 5 0 2 -6 -7 -13 -9 -7 -20 -31 -24 -55 -4 -23 -12 -45 -17
-48 -7 -5 -8 -2 -4 7 4 8 0 5 -8 -6 -9 -11 -14 -25 -11 -33 2 -7 1 -11 -4 -8
-4 3 -13 -6 -20 -20 -9 -20 -8 -24 1 -18 7 5 3 -5 -10 -20 -12 -16 -22 -35
-22 -43 0 -7 -7 -16 -15 -19 -10 -4 -13 -13 -10 -25 5 -13 2 -19 -7 -17 -8 2
-13 -6 -13 -19 0 -12 -13 -35 -28 -51 -15 -15 -27 -33 -27 -40 0 -7 -4 -12
-10 -12 -5 0 -10 -6 -10 -13 0 -22 -35 -83 -68 -118 -18 -19 -32 -39 -32 -46
0 -7 -20 -37 -45 -67 -25 -31 -45 -60 -45 -66 0 -5 -9 -20 -21 -32 -28 -31
-85 -115 -107 -157 -9 -19 -30 -48 -47 -66 -57 -60 -125 -144 -125 -153 0 -5
-9 -17 -20 -27 -12 -10 -18 -25 -16 -32 3 -7 -1 -13 -9 -13 -8 0 -15 -4 -15
-10 0 -5 -5 -10 -11 -10 -6 0 -17 -6 -25 -14 -7 -8 -19 -17 -26 -19 -10 -4 -9
-8 2 -17 13 -10 13 -11 -1 -7 -10 3 -34 -16 -70 -55 -30 -34 -81 -86 -114
-117 -32 -31 -112 -109 -176 -174 -65 -64 -122 -117 -128 -117 -6 0 -17 -11
-23 -25 -6 -14 -19 -25 -29 -25 -22 0 -34 -16 -17 -23 7 -3 -2 -6 -19 -6 -18
-1 -33 -6 -33 -12 0 -19 -83 -109 -101 -109 -10 0 -20 -4 -24 -9 -8 -14 -94
-71 -106 -71 -5 0 -12 -7 -15 -15 -3 -8 -24 -20 -46 -25 -21 -6 -47 -18 -58
-27 -59 -50 -91 -84 -85 -93 3 -5 1 -10 -6 -10 -6 0 -20 -10 -30 -22 -41 -47
-15 -1 49 85 37 51 87 124 112 162 24 39 70 104 101 145 72 96 242 336 299
420 24 36 62 88 85 115 23 28 64 84 92 125 56 86 76 114 229 329 102 145 210
299 379 545 38 55 89 127 114 162 60 80 224 305 303 416 35 47 90 121 124 165
34 43 90 119 125 169 222 315 362 494 375 481 3 -3 -8 -26 -26 -52z m-7227
-755 c-3 -11 -9 -20 -15 -20 -5 0 -4 9 2 20 6 11 12 20 14 20 2 0 2 -9 -1 -20z
m-96 -67 c-3 -10 -5 -4 -5 12 0 17 2 24 5 18 2 -7 2 -21 0 -30z m279 -651 c16
-13 9 -10 -16 6 -25 17 -56 43 -70 58 -20 23 -17 22 16 -6 22 -19 54 -45 70
-58z m499 -280 c-3 -3 -11 0 -18 7 -9 10 -8 11 6 5 10 -3 15 -9 12 -12z m654
-61 c248 -137 1210 -638 1364 -710 100 -47 117 -61 117 -101 0 -22 -46 -53
-80 -53 -14 0 -104 43 -200 95 -96 52 -290 152 -430 222 -140 71 -327 168
-415 216 -88 48 -216 118 -285 155 -69 38 -145 79 -170 93 -87 48 -109 84 -73
124 26 29 60 21 172 -41z m2505 -557 c41 -40 52 -115 21 -139 -19 -15 -18 -16
15 -9 19 3 50 13 69 20 37 15 87 19 95 6 10 -16 -11 -31 -59 -42 -124 -28
-208 -62 -332 -136 -34 -20 -54 -13 -37 14 12 18 20 23 127 73 37 17 67 38 67
45 0 16 -26 19 -35 4 -10 -16 -67 -12 -87 7 -22 20 -24 73 -2 114 26 51 124
78 158 43z m1162 -46 c-9 -12 -16 -19 -16 -15 0 11 24 47 28 42 2 -2 -3 -14
-12 -27z m-4176 -13 c19 -22 8 -25 -12 -3 -10 10 -14 18 -9 18 5 0 14 -7 21
-15z m68 -41 c12 -8 22 -13 22 -9 0 7 202 -101 265 -142 27 -18 54 -33 60 -33
6 0 42 -19 80 -41 39 -23 150 -84 249 -136 98 -52 202 -110 230 -128 28 -18
112 -64 186 -102 74 -39 171 -90 215 -115 122 -69 213 -118 290 -158 173 -90
323 -182 307 -188 -6 -2 -29 6 -51 17 -22 12 -49 21 -60 21 -11 0 -22 4 -25 9
-3 4 -19 11 -35 14 -17 4 -64 22 -105 42 -41 19 -88 35 -105 35 -19 0 -34 6
-38 15 -7 19 -60 48 -73 40 -5 -3 -15 3 -21 13 -7 11 -19 17 -28 15 -9 -2 -62
19 -118 46 -56 28 -108 51 -115 51 -7 0 -21 9 -31 20 -9 11 -22 20 -29 20 -9
0 -8 -3 2 -10 8 -5 11 -12 7 -16 -9 -9 -37 15 -37 31 0 7 -15 15 -34 18 -18 3
-53 15 -77 26 -23 12 -48 21 -53 21 -6 0 -39 18 -74 40 -34 22 -69 40 -76 40
-6 0 -25 13 -42 29 -16 15 -51 38 -78 51 -27 12 -56 28 -63 36 -8 8 -19 14
-24 14 -6 0 -9 10 -7 23 2 17 -2 22 -19 21 -13 0 -23 3 -23 7 0 4 -9 5 -20 2
-14 -4 -20 0 -20 11 0 10 -14 23 -32 31 -35 14 -106 82 -98 92 3 4 -8 11 -25
16 -16 5 -41 20 -55 32 -14 12 -53 40 -87 62 -35 22 -60 43 -56 47 3 3 -1 6
-11 6 -9 0 -14 5 -11 10 4 6 -8 10 -27 11 -27 0 -30 2 -13 9 19 8 19 9 -1 9
-26 1 -78 40 -54 41 9 0 26 -7 38 -16z m3980 -119 c-28 -36 -54 -65 -56 -65
-5 0 6 14 61 83 21 26 41 47 43 47 3 0 -19 -29 -48 -65z m108 -115 c-205 -303
-340 -462 -477 -566 -48 -36 -89 -59 -89 -50 0 2 25 20 56 40 110 73 304 293
444 501 70 105 171 245 177 245 2 0 -48 -76 -111 -170z m-1021 70 c24 -47 19
-87 -15 -121 -25 -25 -36 -30 -71 -27 -49 3 -76 33 -85 88 -6 44 3 58 52 75
66 24 101 19 119 -15z m808 -99 c-23 -37 -132 -175 -175 -222 -42 -45 -30 -29
75 103 47 58 90 116 97 127 6 12 13 21 16 21 3 0 -2 -13 -13 -29z m-233 -294
c0 -2 -12 -14 -27 -28 l-28 -24 24 28 c23 25 31 32 31 24z m-120 -110 c0 -2
-10 -12 -22 -23 l-23 -19 19 23 c18 21 26 27 26 19z m-140 -92 c0 -10 -102
-56 -157 -70 -90 -24 -86 -16 7 14 47 15 99 35 115 44 34 18 35 19 35 12z
m353 -18 c-11 -19 -97 -94 -158 -139 -28 -20 -96 -59 -152 -86 -56 -27 -99
-52 -96 -55 3 -3 -6 -3 -19 0 -18 4 -20 3 -8 -6 13 -9 13 -11 -2 -11 -9 0 -31
-18 -48 -40 -46 -58 -85 -83 -132 -83 -22 0 -43 5 -47 10 -3 5 -18 13 -33 17
-15 3 -35 17 -44 31 -15 23 -23 25 -84 25 -73 0 -187 20 -260 45 l-45 15 70
-4 c72 -5 244 4 419 23 190 20 385 96 550 215 77 55 104 69 89 43z m-253 -102
c0 -3 -27 -18 -59 -35 -65 -32 -239 -77 -330 -85 -46 -4 -42 -2 24 10 100 18
231 57 298 89 54 25 67 29 67 21z"/>
<path d="M6190 8896 c0 -2 7 -7 16 -10 8 -3 12 -2 9 4 -6 10 -25 14 -25 6z"/>
<path d="M6508 8733 c7 -3 16 -2 19 1 4 3 -2 6 -13 5 -11 0 -14 -3 -6 -6z"/>
<path d="M4385 8250 c-3 -5 -1 -10 4 -10 6 0 11 5 11 10 0 6 -2 10 -4 10 -3 0
-8 -4 -11 -10z"/>
<path d="M4190 7889 c0 -5 5 -7 10 -4 6 3 10 8 10 11 0 2 -4 4 -10 4 -5 0 -10
-5 -10 -11z"/>
<path d="M4050 7735 c0 -8 -11 -17 -25 -21 -14 -3 -25 -12 -25 -18 0 -7 -18
-29 -40 -51 -42 -41 -43 -60 -2 -50 22 5 24 4 12 -10 -20 -25 -8 -26 46 -5 27
10 43 19 37 20 -22 0 -14 30 7 30 18 0 20 7 20 60 0 47 -3 60 -15 60 -8 0 -15
-7 -15 -15z"/>
<path d="M4103 7620 c-35 -14 -27 -20 10 -8 17 6 34 13 36 14 8 7 -24 3 -46
-6z"/>
<path d="M3903 7563 c-4 -10 -14 -24 -22 -30 -9 -8 1 -6 24 3 46 19 60 29 28
21 -13 -3 -23 -1 -23 3 0 5 10 11 23 13 l22 4 -23 2 c-13 0 -25 -6 -29 -16z"/>
<path d="M4870 7269 c-243 -21 -653 -135 -890 -247 -184 -87 -302 -166 -449
-300 -209 -191 -320 -322 -410 -487 -18 -33 -43 -78 -56 -100 -13 -22 -44 -89
-68 -150 -81 -201 -101 -323 -94 -555 3 -117 11 -191 26 -256 40 -177 141
-415 225 -533 51 -71 64 -73 16 -2 -17 24 -30 50 -30 57 0 7 -6 14 -12 17 -10
3 -10 7 1 20 11 14 12 52 3 230 -10 202 -7 274 16 462 5 39 14 82 20 97 6 15
16 56 22 91 7 35 20 76 29 91 18 27 18 24 25 -156 7 -173 21 -306 48 -426 11
-51 12 -52 31 -35 10 10 25 30 33 45 12 24 11 33 -21 101 -117 254 -109 589
23 894 125 291 337 532 616 702 249 152 653 291 848 291 74 0 103 17 157 90
l51 70 -33 -1 c-17 -1 -75 -5 -127 -10z"/>
<path d="M5270 7034 c-42 -8 -153 -46 -190 -65 -74 -37 -130 -121 -130 -195 0
-51 25 -98 79 -146 89 -79 172 -99 307 -75 137 25 224 80 273 172 25 47 28
123 6 164 -22 44 -101 108 -153 125 -52 17 -153 27 -192 20z m120 -163 c86
-46 90 -105 11 -159 -85 -59 -207 -48 -256 21 -23 33 -18 70 14 102 54 55 165
72 231 36z"/>
<path d="M7169 6943 c-13 -16 -12 -17 4 -4 9 7 17 15 17 17 0 8 -8 3 -21 -13z"/>
<path d="M4520 6751 c-125 -41 -342 -154 -445 -231 -200 -150 -377 -412 -414
-615 -18 -94 -11 -118 8 -30 24 110 37 148 82 235 139 269 407 491 714 591 39
12 75 26 80 30 6 3 24 10 42 13 38 9 67 36 37 36 -11 -1 -57 -13 -104 -29z"/>
<path d="M6191 6698 c-18 -5 -43 -15 -55 -23 -11 -7 -48 -18 -81 -25 -33 -6
-127 -29 -210 -50 -82 -21 -167 -41 -187 -44 -21 -4 -59 -18 -85 -31 -27 -14
-82 -32 -123 -40 -41 -9 -97 -24 -125 -34 -27 -10 -70 -22 -95 -26 -25 -4
-104 -20 -177 -35 -73 -16 -157 -30 -188 -31 -61 -3 -61 -2 -44 -77 18 -87 15
-86 164 -57 72 14 168 36 215 50 47 13 117 32 155 41 39 8 135 36 215 61 80
24 202 58 272 74 70 16 180 42 245 58 65 17 151 37 192 45 41 9 78 21 83 28 4
7 8 30 8 51 0 31 -4 39 -25 47 -14 5 -25 14 -25 20 0 12 -83 12 -129 -2z"/>
<path d="M4445 6671 c-193 -67 -367 -180 -501 -324 -154 -166 -223 -294 -266
-493 -15 -67 -25 -98 -30 -87 -8 23 -10 -163 -2 -206 l7 -31 33 37 c19 21 80
99 136 173 56 74 118 153 138 175 21 22 72 88 114 148 43 59 141 183 219 276
123 147 244 302 270 347 12 22 -27 17 -118 -15z"/>
<path d="M2785 6561 c-3 -5 -1 -12 5 -16 5 -3 10 1 10 9 0 18 -6 21 -15 7z"/>
<path d="M2805 6530 c-9 -40 0 -50 41 -50 33 0 34 1 34 40 0 39 -1 40 -34 40
-30 0 -35 -4 -41 -30z"/>
<path d="M6804 6508 l-29 -33 33 29 c30 28 37 36 29 36 -2 0 -16 -15 -33 -32z"/>
<path d="M2747 6472 c-24 -27 -21 -32 18 -32 40 0 42 3 17 31 -18 19 -19 19
-35 1z"/>
<path d="M5729 6322 c-169 -45 -260 -188 -200 -317 36 -78 139 -143 240 -152
63 -6 157 14 222 48 50 25 135 103 155 141 17 33 18 116 2 155 -6 15 -10 32
-9 36 1 5 -3 6 -7 3 -5 -3 -17 3 -26 13 -11 12 -13 21 -6 24 6 3 5 4 -2 2 -7
-1 -26 6 -43 15 -84 50 -209 62 -326 32z m196 -135 c23 -13 49 -39 60 -60 l20
-37 -20 -37 c-43 -79 -153 -104 -229 -53 -71 50 -95 119 -53 157 62 57 152 70
222 30z"/>
<path d="M6500 6147 c-33 -40 -52 -67 -48 -67 6 0 80 91 77 94 -2 2 -15 -10
-29 -27z"/>
<path d="M4710 6103 c-68 -8 -186 -50 -309 -110 -89 -44 -187 -135 -224 -209
-40 -79 -70 -217 -63 -291 13 -153 60 -250 175 -364 144 -142 299 -202 521
-201 69 0 148 6 175 12 61 13 196 77 247 116 84 65 184 230 207 342 52 251
-74 506 -309 627 -91 47 -322 90 -420 78z m290 -88 c153 -48 253 -120 330
-235 75 -111 91 -285 39 -400 -28 -59 -120 -178 -147 -187 -10 -4 -44 -25 -77
-47 -33 -22 -100 -55 -150 -74 -49 -19 -106 -40 -125 -47 -47 -19 -111 -18
-206 1 -93 18 -124 29 -184 65 -25 14 -58 29 -73 33 -64 15 -199 181 -238 292
-63 179 36 408 223 518 59 34 156 74 238 98 95 27 255 20 370 -17z"/>
<path d="M4680 5964 c-38 -8 -130 -40 -193 -68 -117 -51 -218 -203 -225 -338
-5 -81 7 -118 70 -226 56 -95 113 -155 161 -171 26 -8 28 -8 13 2 -72 46 -166
171 -187 251 -14 51 -4 147 22 204 23 55 124 154 188 186 90 46 166 66 250 66
161 0 276 -45 379 -147 78 -79 106 -136 107 -220 0 -44 2 -56 8 -40 5 12 7 63
5 112 -3 69 -10 101 -27 135 -52 100 -169 196 -281 231 -64 20 -236 33 -290
23z"/>
<path d="M4678 5718 c-31 -26 -48 -63 -48 -106 0 -49 31 -87 83 -100 30 -8 28
-9 -36 -30 -37 -12 -75 -22 -85 -22 -9 0 -32 -9 -49 -20 -28 -17 -33 -26 -33
-58 0 -47 22 -80 66 -98 30 -13 45 -12 137 6 169 35 202 63 163 142 -9 17 -16
32 -16 34 0 2 17 6 38 9 126 20 172 46 172 95 0 37 -25 67 -80 95 -35 17 -50
21 -53 12 -3 -9 -10 -9 -30 2 -14 8 -24 18 -21 22 3 5 -1 6 -9 3 -8 -3 -21 2
-30 10 -20 20 -145 22 -169 4z m175 -66 l68 -17 -57 -48 c-46 -38 -64 -47 -88
-45 -28 3 -31 7 -34 42 -5 54 5 86 26 86 9 0 48 -8 85 -18z"/>
<path d="M5120 5245 c-48 -39 -172 -97 -255 -119 -11 -3 0 -3 25 -1 59 7 195
74 251 124 59 54 47 51 -21 -4z"/>
<path d="M6339 5943 c-13 -16 -12 -17 4 -4 16 13 21 21 13 21 -2 0 -10 -8 -17
-17z"/>
<path d="M6309 5903 c-13 -16 -12 -17 4 -4 16 13 21 21 13 21 -2 0 -10 -8 -17
-17z"/>
<path d="M6264 5848 c-16 -18 -54 -62 -83 -98 -47 -58 -48 -60 -9 -18 53 55
132 148 126 148 -2 0 -17 -15 -34 -32z"/>
<path d="M1923 5725 c0 -11 4 -12 14 -4 7 6 13 13 13 15 0 2 -6 4 -13 4 -8 0
-14 -7 -14 -15z"/>
<path d="M2341 5724 c0 -11 3 -14 6 -6 3 7 2 16 -1 19 -3 4 -6 -2 -5 -13z"/>
<path d="M2333 5625 c0 -22 2 -30 4 -17 2 12 2 30 0 40 -3 9 -5 -1 -4 -23z"/>
<path d="M5969 5503 c-35 -43 -53 -70 -42 -60 24 21 117 137 109 137 -2 0 -33
-35 -67 -77z"/>
<path d="M5809 5313 c-93 -113 -101 -123 -96 -123 3 0 36 37 73 83 88 105 98
117 92 117 -3 0 -34 -35 -69 -77z"/>
<path d="M5639 5103 c-13 -16 -12 -17 4 -4 9 7 17 15 17 17 0 8 -8 3 -21 -13z"/>
<path d="M5533 4975 c-178 -217 -262 -324 -241 -307 39 32 337 402 324 402 -3
0 -40 -43 -83 -95z"/>
<path d="M5219 4583 c-13 -16 -12 -17 4 -4 9 7 17 15 17 17 0 8 -8 3 -21 -13z"/>
<path d="M3221 4543 c7 -12 15 -20 18 -17 3 2 -3 12 -13 22 -17 16 -18 16 -5
-5z"/>
<path d="M7565 4464 c-24 -37 -13 -40 14 -4 12 17 17 30 12 30 -5 0 -16 -12
-26 -26z"/>
<path d="M5005 4350 c-9 -16 -13 -30 -11 -30 3 0 12 14 21 30 9 17 13 30 11
30 -3 0 -12 -13 -21 -30z"/>
<path d="M7474 4332 c-26 -41 -95 -114 -127 -135 -26 -17 -39 -45 -14 -31 6 3
-1 -6 -18 -22 -16 -16 -33 -28 -38 -26 -5 1 -5 -2 -2 -8 8 -13 -35 -56 -67
-66 -25 -7 -50 -29 -42 -36 2 -3 -7 -13 -21 -22 -14 -9 -25 -14 -25 -11 0 3
-6 1 -12 -5 -56 -46 -169 -130 -193 -143 -40 -22 -75 -53 -75 -66 0 -18 18
-12 30 9 6 11 17 17 24 14 12 -5 94 58 117 89 3 5 10 8 14 6 4 -1 47 26 95 60
99 70 296 273 349 360 33 55 38 84 5 33z"/>
<path d="M6810 3735 c-7 -8 -16 -13 -20 -10 -5 3 -10 1 -12 -4 -9 -28 -311
-172 -460 -222 -48 -15 -100 -35 -115 -43 -47 -24 -259 -85 -387 -110 -257
-53 -392 -68 -636 -73 -382 -8 -691 31 -1050 133 -81 23 -206 72 -280 109 -36
18 -77 36 -91 39 -46 10 -202 87 -338 167 -66 39 -40 11 36 -39 130 -85 454
-233 638 -292 84 -27 395 -97 530 -119 331 -55 830 -29 1247 64 225 51 620
199 801 302 45 25 84 49 87 53 3 4 20 15 38 24 17 9 32 21 32 26 0 14 -6 12
-20 -5z"/>
<path d="M8030 7067 c-14 -6 -29 -17 -33 -24 -10 -17 -30 -17 -21 0 4 6 -3 2
-16 -9 -46 -44 -17 -207 39 -218 41 -9 121 17 223 73 87 47 91 51 58 51 -32 1
-37 5 -60 51 -33 68 -61 89 -119 88 -25 0 -57 -6 -71 -12z m135 -22 c20 -19
25 -34 25 -74 0 -71 -26 -98 -109 -113 l-65 -11 -29 33 c-25 28 -29 39 -24 74
4 32 15 49 48 79 35 31 49 37 86 37 33 0 50 -6 68 -25z"/>
<path d="M8056 6968 c-22 -31 -20 -58 3 -58 21 0 64 47 58 64 -7 21 -45 18
-61 -6z"/>
<path d="M8260 6856 c-19 -8 -75 -32 -125 -54 -49 -21 -113 -45 -140 -51 -67
-16 -86 -28 -60 -36 11 -4 29 -11 40 -15 11 -5 38 -11 59 -14 25 -3 51 -16 71
-36 l33 -32 -11 41 c-19 70 21 119 106 128 55 7 95 -24 104 -80 7 -43 -12 -71
-62 -93 -22 -10 -25 -13 -10 -13 38 1 80 34 94 75 19 56 16 132 -7 163 -23 31
-45 35 -92 17z"/>
<path d="M8190 6721 c-5 -11 -10 -24 -10 -30 0 -17 30 -40 44 -35 18 7 40 59
31 73 -11 18 -54 12 -65 -8z"/>
<path d="M4913 2638 c-19 -25 -22 -48 -7 -63 21 -20 27 -19 53 9 16 17 21 31
16 45 -7 24 -46 29 -62 9z"/>
<path d="M5030 2385 c-15 -39 -13 -45 19 -45 36 0 59 25 44 48 -17 29 -52 27
-63 -3z"/>
</g>
</svg>
